<svg width="18" height="18" viewBox="0 0 18 18" fill="none" xmlns="http://www.w3.org/2000/svg">
<path d="M16 0H2C0.89 0 0 0.9 0 2V16C0 17.1 0.89 18 2 18H16C17.11 18 18 17.1 18 16V2C18 0.9 17.11 0 16 0ZM7.70711 13.2929C7.31658 13.6834 6.68342 13.6834 6.29289 13.2929L2.70549 9.70549C2.31586 9.31586 2.31586 8.68414 2.70549 8.29451V8.29451C3.09474 7.90526 3.7257 7.90482 4.11549 8.29353L7 11.17L13.8804 4.28961C14.2719 3.89811 14.9074 3.89963 15.2975 4.29251V4.29251C15.6857 4.68343 15.6849 5.31506 15.2954 5.70461L7.70711 13.2929Z" fill="#00A19C"/>
</svg>
