<svg width="24" height="24" viewBox="0 0 24 24" fill="none" xmlns="http://www.w3.org/2000/svg">
<path d="M17.678 18.6069L12.963 13.8909C10.4206 15.6984 6.91739 15.2562 4.90383 12.8738C2.89027 10.4914 3.03812 6.96349 5.24396 4.7579C7.44922 2.55134 10.9775 2.40285 13.3603 4.41631C15.7432 6.42977 16.1856 9.93334 14.378 12.4759L19.386 17.4848C19.7764 17.8753 19.7761 18.5087 19.3856 18.8992C18.9954 19.2895 18.3625 19.2901 17.9719 18.9002L17.678 18.6069ZM9.48596 4.99988C7.58966 4.99946 5.95365 6.33057 5.56843 8.18733C5.18321 10.0441 6.15467 11.9162 7.89463 12.6701C9.6346 13.4241 11.6649 12.8527 12.7562 11.3019C13.8475 9.75117 13.7 7.64721 12.403 6.2639L13.008 6.8639L12.326 6.1839L12.314 6.1719C11.5657 5.41907 10.5474 4.99702 9.48596 4.99988Z" fill="#B3BABA"/>
</svg>
